<!-- Generated by IcoMoon.io -->
<svg version="1.1" xmlns="http://www.w3.org/2000/svg" width="32" height="32" viewBox="0 0 32 32">
<path fill="#95e1d3" d="M30.047 12.771h-5.626v17.354h-1.874v-13.267h-5.626v13.267h-1.874v-16.86h-5.626v16.86h-1.843v-9.348h-5.626v9.348h-1.953v1.875h32v-1.875h-1.953v-17.354zM5.703 22.652v1.875h-1.874v-1.875h1.874zM3.829 30.125v-3.723h1.874v3.723h-1.874zM13.171 15.14v1.875h-1.874v-1.875h1.874zM11.298 30.125v-11.235h1.874v11.235h-1.874zM20.671 18.733v1.875h-1.874v-1.875h1.874zM18.797 30.125v-7.642h1.874v7.642h-1.874zM28.171 14.646v1.875h-1.874v-1.875h1.874zM26.297 30.125v-11.729h1.874v11.729h-1.874z"></path>
<path fill="#95e1d3" d="M26.388 0v1.875h2.411l-8.639 8.64-7.157-7.158-12.995 12.996 1.327 1.325 11.668-11.669 7.157 7.157 9.965-9.965v2.419h1.876v-5.621h-5.612z"></path>
</svg>
