<!-- Generated by IcoMoon.io -->
<svg version="1.1" xmlns="http://www.w3.org/2000/svg" width="32" height="32" viewBox="0 0 32 32">
<path fill="#95e1d3" d="M11.733 13.333v-11.733c0-0.907-0.693-1.6-1.6-1.6h-5.333c-0.907 0-1.6 0.693-1.6 1.6v11.733c0 0.907 0.693 1.6 1.6 1.6h5.333c0.907 0 1.6-0.693 1.6-1.6zM10.667 11.733h-6.4v-8.533h6.4v8.533zM4.8 1.067h5.333c0.32 0 0.533 0.213 0.533 0.533v0.533h-6.4v-0.533c0-0.32 0.213-0.533 0.533-0.533zM4.267 13.333v-0.533h6.4v0.533c0 0.32-0.213 0.533-0.533 0.533h-5.333c-0.32 0-0.533-0.213-0.533-0.533z"></path>
<path fill="#95e1d3" d="M9.92 7.467l-4.053-3.253v6.507l4.053-3.253zM6.933 6.453l1.28 1.013-1.28 1.013v-2.027z"></path>
<path fill="#95e1d3" d="M14.933 9.067c0-3.52 2.88-6.4 6.4-6.4 1.493 0 2.987 0.533 4.16 1.493l-1.173 1.173c-2.080-1.653-5.067-1.333-6.72 0.747-0.693 0.853-1.067 1.92-1.067 2.987h1.067c0-2.080 1.653-3.733 3.733-3.733 0.8 0 1.6 0.267 2.24 0.747l-1.173 1.173c-0.32-0.213-0.693-0.32-1.067-0.32-1.173 0-2.133 0.96-2.133 2.133h1.067c0-0.587 0.48-1.067 1.067-1.067 0.107 0 0.16 0 0.267 0.053l-0.64 0.64 0.747 0.747 0.64-0.64c0 0.107 0.053 0.16 0.053 0.267 0 0.587-0.48 1.067-1.067 1.067v1.067c1.173 0 2.133-0.96 2.133-2.133 0-0.373-0.107-0.747-0.32-1.067l1.173-1.173c1.227 1.653 0.906 4-0.747 5.227-0.64 0.48-1.44 0.747-2.24 0.747v1.067c2.667 0 4.8-2.133 4.8-4.8 0-1.067-0.373-2.133-1.067-2.987l1.12-1.12c2.293 2.667 1.973 6.72-0.747 9.014-1.12 0.96-2.614 1.493-4.107 1.493v1.067c4.107 0 7.467-3.307 7.467-7.467 0-1.813-0.64-3.52-1.813-4.907l0.96-0.96h2.453v-1.067h-2.133v-2.133h-1.067v2.453l-0.96 0.96c-3.147-2.667-7.84-2.347-10.56 0.747-1.173 1.387-1.813 3.093-1.813 4.907h1.067z"></path>
<path fill="#95e1d3" d="M26.133 19.733h-4.693l-10.133-3.733h-1.173c-0.907 0-1.6 0.693-1.6 1.6v10.667c0 0.907 0.693 1.6 1.6 1.6h1.173l10.133-4.267h1.493v4.8c0 0.907 0.693 1.6 1.6 1.6s1.6-0.693 1.6-1.6v-4.8c0.907 0 1.6-0.693 1.6-1.6v-2.667c0-0.907-0.693-1.6-1.6-1.6zM11.733 17.28l9.067 3.36v4.053l-9.067 3.84v-11.253zM9.6 28.267v-10.667c0-0.32 0.213-0.533 0.533-0.533h0.533v11.733h-0.533c-0.32 0-0.533-0.213-0.533-0.533zM25.067 30.4c0 0.32-0.213 0.533-0.533 0.533s-0.533-0.213-0.533-0.533v-4.8h1.067v4.8zM26.667 24c0 0.32-0.213 0.533-0.533 0.533h-4.267v-3.733h4.267c0.32 0 0.533 0.213 0.533 0.533v2.667z"></path>
<path fill="#95e1d3" d="M5.333 21.867h2.133v1.067h-2.133v-1.067z"></path>
<path fill="#95e1d3" d="M5.497 17.985l0.754-0.754 1.584 1.584-0.754 0.754-1.584-1.584z"></path>
<path fill="#95e1d3" d="M5.497 26.815l1.584-1.584 0.754 0.754-1.584 1.584-0.754-0.754z"></path>
<path fill="#95e1d3" d="M13.867 10.187v0.533c0 3.2 2.613 5.813 5.813 5.813h0.587v-6.4h-5.867l-0.533 0.053zM19.2 11.2v4.267c-2.24-0.213-4-2.027-4.213-4.267h4.213z"></path>
<path fill="#95e1d3" d="M12.8 1.6h3.2v1.067h-3.2v-1.067z"></path>
<path fill="#95e1d3" d="M29.867 11.2v10.133c0 0.32-0.213 0.533-0.533 0.533h-0.533v1.067h0.533c0.907 0 1.6-0.693 1.6-1.6v-10.133h-1.067z"></path>
<path fill="#95e1d3" d="M2.133 21.333v-10.133h-1.067v10.133c0 0.907 0.693 1.6 1.6 1.6h1.6v-1.067h-1.6c-0.32 0-0.533-0.213-0.533-0.533z"></path>
</svg>
