<!-- Generated by IcoMoon.io -->
<svg version="1.1" xmlns="http://www.w3.org/2000/svg" width="32" height="32" viewBox="0 0 32 32">
<path fill="#95e1d3" d="M30.4 0.023h-28.8c-0.884 0-1.6 0.716-1.6 1.6v19.2c0 0.884 0.716 1.6 1.6 1.6h9.067c1.472 0.002 2.665 1.195 2.667 2.667-0.003 1.472-1.195 2.664-2.667 2.667-0.007 0-0.013 0.004-0.021 0.004-0.039 0.003-0.077 0.011-0.114 0.023-0.030 0.006-0.059 0.014-0.087 0.024-0.031 0.017-0.060 0.036-0.087 0.058-0.028 0.018-0.054 0.038-0.078 0.060-0.020 0.024-0.038 0.049-0.053 0.076-0.023 0.031-0.042 0.065-0.057 0.101 0 0.006-0.007 0.011-0.010 0.018l-1.067 3.2c-0.093 0.28 0.058 0.582 0.337 0.675 0.055 0.018 0.112 0.027 0.17 0.027h12.8c0.294-0 0.533-0.239 0.533-0.534 0-0.057-0.009-0.114-0.027-0.168l-1.067-3.2c0-0.007-0.007-0.011-0.010-0.018-0.015-0.035-0.035-0.069-0.058-0.1-0.016-0.027-0.033-0.053-0.053-0.077-0.024-0.022-0.050-0.043-0.078-0.060-0.027-0.022-0.056-0.042-0.087-0.058-0.028-0.010-0.057-0.018-0.087-0.024-0.037-0.012-0.075-0.020-0.114-0.023-0.008 0-0.013-0.004-0.021-0.004-1.472-0.003-2.664-1.195-2.667-2.667 0.002-1.472 1.195-2.665 2.667-2.667h9.068c0.884 0 1.6-0.716 1.6-1.6v-19.2c0-0.884-0.716-1.6-1.6-1.6zM17.6 25.090c0.003 1.909 1.443 3.51 3.342 3.712l0.718 2.154h-11.319l0.718-2.154c1.898-0.203 3.339-1.803 3.342-3.712 0-1.004-0.406-1.966-1.126-2.667h5.452c-0.72 0.7-1.126 1.662-1.126 2.667zM30.933 20.823c0 0.294-0.239 0.533-0.533 0.533h-28.8c-0.295 0-0.533-0.239-0.533-0.533v-1.6h29.867v1.6zM1.067 18.156v-16.533c0-0.295 0.239-0.533 0.533-0.533h28.8c0.295 0 0.533 0.239 0.533 0.533v16.533h-29.867z"></path>
<path fill="#95e1d3" d="M22.569 8.051l-1.535-0.512 0.724-1.449c0.103-0.205 0.062-0.453-0.1-0.615l-1.508-1.508c-0.162-0.162-0.41-0.203-0.615-0.1l-1.449 0.724-0.512-1.535c-0.072-0.218-0.276-0.364-0.506-0.365h-2.133c-0.229 0-0.433 0.147-0.505 0.365l-0.512 1.535-1.449-0.724c-0.205-0.103-0.453-0.062-0.615 0.1l-1.508 1.508c-0.162 0.162-0.203 0.41-0.1 0.615l0.724 1.449-1.535 0.512c-0.218 0.072-0.365 0.276-0.365 0.505v2.133c0 0.229 0.147 0.433 0.365 0.505l1.535 0.512-0.724 1.449c-0.102 0.205-0.062 0.453 0.1 0.616l1.508 1.508c0.162 0.162 0.41 0.203 0.615 0.1l1.449-0.724 0.512 1.535c0.072 0.218 0.276 0.365 0.505 0.365h2.133c0.229-0 0.433-0.147 0.506-0.365l0.512-1.535 1.448 0.724c0.205 0.102 0.453 0.062 0.615-0.1l1.508-1.508c0.162-0.162 0.203-0.41 0.1-0.616l-0.724-1.449 1.535-0.512c0.218-0.072 0.365-0.276 0.365-0.505v-2.133c-0-0.229-0.147-0.433-0.365-0.505zM21.867 10.305l-1.755 0.587c-0.279 0.093-0.43 0.396-0.337 0.675 0.008 0.024 0.017 0.047 0.029 0.069l0.827 1.653-0.965 0.965-1.653-0.827c-0.263-0.133-0.584-0.027-0.717 0.236-0.012 0.023-0.022 0.048-0.030 0.073l-0.584 1.755h-1.364l-0.587-1.755c-0.093-0.279-0.395-0.43-0.675-0.337-0.024 0.008-0.047 0.017-0.069 0.029l-1.653 0.827-0.965-0.965 0.827-1.653c0.132-0.264 0.024-0.584-0.239-0.715-0.023-0.011-0.046-0.021-0.069-0.029l-1.755-0.587v-1.364l1.755-0.587c0.279-0.093 0.43-0.395 0.337-0.675-0.008-0.024-0.017-0.047-0.029-0.069l-0.827-1.653 0.965-0.965 1.653 0.827c0.264 0.132 0.584 0.025 0.715-0.239 0.011-0.022 0.021-0.045 0.029-0.069l0.587-1.755h1.364l0.587 1.755c0.093 0.28 0.394 0.431 0.674 0.338 0.025-0.008 0.049-0.018 0.073-0.030l1.653-0.827 0.965 0.965-0.827 1.653c-0.131 0.264-0.024 0.584 0.239 0.715 0.023 0.011 0.046 0.021 0.069 0.029l1.755 0.587-0.003 1.364z"></path>
<path fill="#95e1d3" d="M16 6.423c-1.767 0-3.2 1.433-3.2 3.2s1.433 3.2 3.2 3.2c1.767 0 3.2-1.433 3.2-3.2-0.002-1.767-1.433-3.198-3.2-3.2zM16 11.756c-1.178 0-2.133-0.955-2.133-2.133s0.955-2.133 2.133-2.133c1.178 0 2.133 0.955 2.133 2.133s-0.955 2.133-2.133 2.133z"></path>
</svg>
