<!-- Generated by IcoMoon.io -->
<svg version="1.1" xmlns="http://www.w3.org/2000/svg" width="32" height="32" viewBox="0 0 32 32">
<path fill="#95e1d3" d="M23.442 8.871c-0.116-0.116-0.277-0.183-0.442-0.183s-0.326 0.067-0.442 0.183-0.183 0.277-0.183 0.442c0 0.164 0.067 0.326 0.183 0.442s0.277 0.183 0.442 0.183c0.164 0 0.326-0.067 0.442-0.183s0.183-0.278 0.183-0.442c0-0.164-0.067-0.326-0.183-0.442z"></path>
<path fill="#95e1d3" d="M9.375 17.625h-5c-0.345 0-0.625 0.28-0.625 0.625v5c0 0.345 0.28 0.625 0.625 0.625h5c0.345 0 0.625-0.28 0.625-0.625v-5c0-0.345-0.28-0.625-0.625-0.625zM8.75 22.625h-3.75v-3.75h3.75v3.75z"></path>
<path fill="#95e1d3" d="M31.614 13.11c-0.233-0.097-0.502-0.043-0.681 0.135l-6.369 6.369c-0 0-0 0-0 0s-0 0-0 0l-7.424 7.424c-0 0-0 0-0 0s-0 0-0 0l-3.894 3.894c-0.179 0.179-0.232 0.448-0.135 0.681s0.325 0.386 0.577 0.386h17.688c0.345 0 0.625-0.28 0.625-0.625v-17.687c0-0.253-0.152-0.481-0.386-0.577zM30.75 30.75h-15.554l2.385-2.385 0.597 0.597c0.122 0.122 0.282 0.183 0.442 0.183s0.32-0.061 0.442-0.183c0.244-0.244 0.244-0.64 0-0.884l-0.597-0.597 1.591-1.591 0.597 0.597c0.122 0.122 0.282 0.183 0.442 0.183s0.32-0.061 0.442-0.183c0.244-0.244 0.244-0.64 0-0.884l-0.597-0.597 1.591-1.591 0.597 0.597c0.122 0.122 0.282 0.183 0.442 0.183s0.32-0.061 0.442-0.183c0.244-0.244 0.244-0.64 0-0.884l-0.597-0.597 1.591-1.591 0.597 0.597c0.122 0.122 0.282 0.183 0.442 0.183s0.32-0.061 0.442-0.183c0.244-0.244 0.244-0.64 0-0.884l-0.597-0.597 1.591-1.591 0.597 0.596c0.122 0.122 0.282 0.183 0.442 0.183s0.32-0.061 0.442-0.183c0.244-0.244 0.244-0.64 0-0.884l-0.597-0.597 2.385-2.385v15.554z"></path>
<path fill="#95e1d3" d="M28.489 20.655c-0.233-0.097-0.502-0.043-0.681 0.135l-7.018 7.018c-0.179 0.179-0.232 0.448-0.136 0.681s0.325 0.386 0.577 0.386h7.018c0.345 0 0.625-0.28 0.625-0.625v-7.018c0-0.253-0.152-0.481-0.386-0.577zM27.625 27.625h-4.884l4.884-4.884v4.884z"></path>
<path fill="#95e1d3" d="M28.941 9.329c-0.172-0.172-0.428-0.229-0.657-0.145l-4.268 1.563c-0.085 0.031-0.163 0.081-0.227 0.145l-1.2 1.2-7.835-7.835c-0.117-0.117-0.276-0.183-0.442-0.183s-0.325 0.066-0.442 0.183l-9.431 9.431h-2.305l12.178-12.179 6.683 6.683c0.244 0.244 0.64 0.244 0.884 0s0.244-0.64 0-0.884l-7.125-7.125c-0.244-0.244-0.64-0.244-0.884 0l-13.687 13.687c-0.179 0.179-0.232 0.448-0.136 0.681s0.325 0.386 0.577 0.386h0.625v16.437c0 0.345 0.28 0.625 0.625 0.625h9.937c0.345 0 0.625-0.28 0.625-0.625s-0.28-0.625-0.625-0.625h-9.312v-15.812h2.198c0.166 0 0.325-0.066 0.442-0.183l9.172-9.173 7.393 7.393-9.268 9.268v-5.619h4.375c0.345 0 0.625-0.28 0.625-0.625s-0.28-0.625-0.625-0.625h-5c-0.345 0-0.625 0.28-0.625 0.625v7.25c0 0.073 0.013 0.143 0.036 0.208l-0.56 0.56c-0.989 0.989-0.989 2.599 0 3.589 0.495 0.495 1.144 0.742 1.794 0.742s1.3-0.247 1.794-0.742l5.271-5.271c0.244-0.244 0.244-0.64 0-0.884s-0.64-0.244-0.884 0l-3.993 3.993-1.821-1.821 11.419-11.419 1.821 1.821-4.363 4.364c-0.244 0.244-0.244 0.64 0 0.884s0.64 0.244 0.884 0l4.793-4.793c0.064-0.064 0.114-0.142 0.145-0.227l1.563-4.268c0.084-0.229 0.027-0.485-0.145-0.657zM13.762 26.329l-0.394 0.394c-0.243 0.243-0.566 0.377-0.91 0.377s-0.667-0.134-0.91-0.377c-0.243-0.243-0.377-0.567-0.377-0.91s0.134-0.667 0.377-0.91l0.394-0.394 1.821 1.821zM26.693 12.886l-1.309-1.309 2.065-0.756-0.756 2.065z"></path>
<path fill="#95e1d3" d="M21.043 19.931c-0.116-0.116-0.277-0.183-0.442-0.183s-0.326 0.067-0.442 0.183c-0.116 0.117-0.183 0.278-0.183 0.442s0.067 0.326 0.183 0.442c0.116 0.116 0.277 0.183 0.442 0.183s0.326-0.066 0.442-0.183c0.116-0.117 0.183-0.278 0.183-0.442s-0.067-0.325-0.183-0.442z"></path>
<path fill="#95e1d3" d="M14.312 9.438c-1.31 0-2.375 1.065-2.375 2.375s1.065 2.375 2.375 2.375 2.375-1.065 2.375-2.375c0-1.309-1.065-2.375-2.375-2.375zM14.312 12.938c-0.62 0-1.125-0.505-1.125-1.125s0.505-1.125 1.125-1.125 1.125 0.505 1.125 1.125c0 0.62-0.505 1.125-1.125 1.125z"></path>
</svg>
