<!-- Generated by IcoMoon.io -->
<svg version="1.1" xmlns="http://www.w3.org/2000/svg" width="32" height="32" viewBox="0 0 32 32">
<path fill="#95e1d3" d="M4.601 22.94c-0.115 0-0.225-0.046-0.306-0.127s-0.127-0.191-0.127-0.306v-15.905c0.019-1.057 0.455-2.063 1.211-2.802s1.773-1.149 2.83-1.142h18.448c0.115 0 0.225 0.046 0.306 0.127s0.127 0.191 0.127 0.306-0.046 0.225-0.127 0.306c-0.081 0.081-0.191 0.127-0.306 0.127h-18.448c-0.829-0.005-1.627 0.316-2.222 0.894s-0.937 1.367-0.955 2.196v15.895c0 0.115-0.046 0.225-0.127 0.306s-0.191 0.127-0.306 0.127z"></path>
<path fill="#95e1d3" d="M25.748 10.744h-2.699c-0.115 0-0.225-0.046-0.306-0.127s-0.127-0.191-0.127-0.306 0.046-0.225 0.127-0.306c0.081-0.081 0.191-0.127 0.306-0.127h1.764c-0.166-0.317-0.263-0.665-0.286-1.022s0.031-0.715 0.156-1.050h-1.635c-0.115 0-0.225-0.046-0.306-0.127s-0.127-0.191-0.127-0.306 0.046-0.225 0.127-0.306c0.081-0.081 0.191-0.127 0.306-0.127h2.319c0.078-0 0.155 0.021 0.222 0.061s0.122 0.098 0.159 0.166 0.055 0.146 0.051 0.224c-0.004 0.078-0.028 0.154-0.071 0.219-0.093 0.142-0.877 1.425 0.291 2.361 0.070 0.056 0.121 0.132 0.145 0.219s0.022 0.178-0.008 0.262-0.085 0.158-0.158 0.209c-0.073 0.052-0.16 0.080-0.25 0.080z"></path>
<path fill="#95e1d3" d="M23.049 26.223c-0.115 0-0.225-0.046-0.306-0.127s-0.127-0.191-0.127-0.306v-19.188c0-0.115 0.046-0.225 0.127-0.306s0.191-0.127 0.306-0.127 0.225 0.046 0.306 0.127c0.081 0.081 0.127 0.191 0.127 0.306v19.188c0 0.115-0.046 0.225-0.127 0.306s-0.191 0.127-0.306 0.127z"></path>
<path fill="#95e1d3" d="M3.716 29.342c-0.711-0-1.399-0.251-1.943-0.709-0.087-0.074-0.17-0.149-0.248-0.227-0.486-0.485-0.829-1.095-0.991-1.762s-0.137-1.366 0.073-2.020c0.21-0.654 0.596-1.237 1.116-1.686s1.153-0.745 1.831-0.857c0.023-0.004 0.047-0.006 0.070-0.006h16.496c0.109-0 0.213 0.041 0.293 0.114s0.129 0.175 0.138 0.283c0.009 0.108-0.023 0.216-0.090 0.302s-0.164 0.143-0.271 0.16c-0.52 0.086-1.007 0.315-1.405 0.659s-0.695 0.793-0.856 1.295c-0.161 0.502-0.18 1.039-0.056 1.551s0.388 0.981 0.761 1.353c0.061 0.061 0.125 0.119 0.19 0.173 0.373 0.314 0.84 0.494 1.328 0.509h0.080c0.338-0.004 0.672-0.082 0.977-0.228 0.42-0.192 0.776-0.5 1.025-0.888s0.382-0.84 0.382-1.301c0-0.115 0.046-0.225 0.127-0.306s0.191-0.127 0.306-0.127 0.225 0.046 0.306 0.127c0.081 0.081 0.127 0.191 0.127 0.306 0.001 0.626-0.177 1.239-0.515 1.766s-0.819 0.946-1.388 1.207c-0.414 0.196-0.865 0.301-1.323 0.307-0.016 0.002-0.033 0.003-0.049 0.003h-16.449c-0.013 0.001-0.027 0.002-0.041 0.002zM3.661 22.94c-0.516 0.092-0.998 0.324-1.392 0.671s-0.685 0.795-0.842 1.295c-0.157 0.501-0.174 1.035-0.048 1.544s0.388 0.975 0.76 1.345c0.061 0.061 0.127 0.12 0.192 0.176 0.378 0.318 0.854 0.496 1.348 0.506h14.415c-0.024-0.023-0.048-0.047-0.072-0.070-0.699-0.7-1.093-1.65-1.093-2.639s0.392-1.939 1.090-2.641c0.064-0.064 0.13-0.126 0.199-0.186l-14.557-0.001z"></path>
<path fill="#95e1d3" d="M26.657 10.744h-0.798c-0.115 0-0.225-0.046-0.306-0.127s-0.127-0.191-0.127-0.306 0.046-0.225 0.127-0.306c0.081-0.081 0.191-0.127 0.306-0.127h0.797c0.625 0 1.236-0.184 1.757-0.529s0.929-0.836 1.172-1.412c0.243-0.576 0.312-1.21 0.196-1.824s-0.409-1.181-0.845-1.629c-0.436-0.448-0.994-0.758-1.604-0.891s-1.247-0.082-1.829 0.145c-0.582 0.227-1.085 0.621-1.444 1.132s-0.561 1.117-0.578 1.741c-0.001 0.057-0.013 0.113-0.035 0.166s-0.056 0.099-0.097 0.139-0.090 0.070-0.143 0.090c-0.053 0.020-0.11 0.029-0.167 0.027s-0.113-0.014-0.165-0.037-0.099-0.056-0.138-0.097c-0.039-0.041-0.070-0.090-0.090-0.143s-0.030-0.11-0.029-0.166c0.021-0.795 0.276-1.566 0.733-2.217s1.096-1.152 1.837-1.442 1.55-0.354 2.328-0.186c0.777 0.168 1.488 0.562 2.043 1.132s0.929 1.291 1.076 2.072 0.061 1.589-0.249 2.322c-0.31 0.733-0.828 1.358-1.491 1.797s-1.441 0.674-2.236 0.673l-0 0.002z"></path>
<path fill="#95e1d3" d="M20.556 7.279h-13.005c-0.115 0-0.225-0.046-0.306-0.127s-0.127-0.191-0.127-0.306c0-0.115 0.046-0.225 0.127-0.306s0.191-0.127 0.306-0.127h13.005c0.115 0 0.225 0.046 0.306 0.127s0.127 0.191 0.127 0.306-0.046 0.225-0.127 0.306c-0.081 0.081-0.191 0.127-0.306 0.127z"></path>
<path fill="#95e1d3" d="M20.556 11.182h-3.475c-0.115 0-0.225-0.046-0.306-0.127s-0.127-0.191-0.127-0.306 0.046-0.225 0.127-0.306c0.081-0.081 0.191-0.127 0.306-0.127h3.475c0.115 0 0.225 0.046 0.306 0.127s0.127 0.191 0.127 0.306-0.046 0.225-0.127 0.306c-0.081 0.081-0.191 0.127-0.306 0.127z"></path>
<path fill="#95e1d3" d="M8.541 11.182h-0.989c-0.115 0-0.225-0.046-0.306-0.127s-0.127-0.191-0.127-0.306 0.046-0.225 0.127-0.306c0.081-0.081 0.191-0.127 0.306-0.127h0.989c0.115 0 0.225 0.046 0.306 0.127s0.127 0.191 0.127 0.306-0.046 0.225-0.127 0.306c-0.081 0.081-0.191 0.127-0.306 0.127z"></path>
<path fill="#95e1d3" d="M20.556 15.085h-3.295c-0.115 0-0.225-0.046-0.306-0.127s-0.127-0.191-0.127-0.306 0.046-0.225 0.127-0.306c0.081-0.081 0.191-0.127 0.306-0.127h3.295c0.115 0 0.225 0.046 0.306 0.127s0.127 0.191 0.127 0.306-0.046 0.225-0.127 0.306c-0.081 0.081-0.191 0.127-0.306 0.127z"></path>
<path fill="#95e1d3" d="M8.046 15.085h-0.495c-0.115 0-0.225-0.046-0.306-0.127s-0.127-0.191-0.127-0.306 0.046-0.225 0.127-0.306c0.081-0.081 0.191-0.127 0.306-0.127h0.495c0.115 0 0.225 0.046 0.306 0.127s0.127 0.191 0.127 0.306-0.046 0.225-0.127 0.306c-0.081 0.081-0.191 0.127-0.306 0.127z"></path>
<path fill="#95e1d3" d="M20.556 18.988h-0.466c-0.115 0-0.225-0.046-0.306-0.127s-0.127-0.191-0.127-0.306 0.046-0.225 0.127-0.306c0.081-0.081 0.191-0.127 0.306-0.127h0.466c0.115 0 0.225 0.046 0.306 0.127s0.127 0.191 0.127 0.306-0.046 0.225-0.127 0.306c-0.081 0.081-0.191 0.127-0.306 0.127z"></path>
<path fill="#95e1d3" d="M13.387 18.988h-5.838c-0.115 0-0.225-0.046-0.306-0.127s-0.127-0.191-0.127-0.306 0.046-0.225 0.127-0.306c0.081-0.081 0.191-0.127 0.306-0.127h5.838c0.115 0 0.225 0.046 0.306 0.127s0.127 0.191 0.127 0.306-0.046 0.225-0.127 0.306c-0.081 0.081-0.191 0.127-0.306 0.127z"></path>
<path fill="#95e1d3" d="M12.517 17.254c-0.591 0-1.173-0.146-1.694-0.424s-0.965-0.681-1.294-1.173c-0.328-0.491-0.53-1.056-0.588-1.644s0.030-1.181 0.256-1.727c0.226-0.546 0.583-1.028 1.040-1.402s0.999-0.631 1.579-0.746c0.58-0.115 1.178-0.086 1.744 0.086s1.080 0.48 1.497 0.898c0.503 0.502 0.845 1.143 0.984 1.839s0.068 1.419-0.204 2.076c-0.272 0.657-0.733 1.218-1.324 1.612s-1.286 0.605-1.996 0.605zM12.517 10.934c-0.631 0-1.243 0.219-1.731 0.619s-0.822 0.958-0.945 1.577c-0.123 0.619-0.028 1.262 0.27 1.819s0.779 0.993 1.362 1.235c0.583 0.242 1.232 0.273 1.836 0.090s1.126-0.57 1.477-1.095c0.351-0.525 0.509-1.155 0.447-1.783s-0.34-1.216-0.786-1.662c-0.253-0.254-0.553-0.456-0.885-0.594s-0.686-0.208-1.045-0.207v0.001z"></path>
<path fill="#95e1d3" d="M11.668 14.093c-0.283 0-0.558-0.098-0.777-0.278s-0.369-0.43-0.424-0.708c-0.055-0.278-0.013-0.566 0.121-0.816s0.35-0.446 0.612-0.554c0.262-0.108 0.553-0.123 0.824-0.040s0.505 0.256 0.663 0.492c0.157 0.236 0.228 0.519 0.2 0.801s-0.153 0.546-0.353 0.746c-0.114 0.114-0.248 0.204-0.397 0.265s-0.307 0.093-0.468 0.093zM11.668 12.508c-0.083-0-0.164 0.029-0.229 0.082s-0.109 0.127-0.125 0.208c-0.016 0.082-0.004 0.167 0.036 0.24s0.103 0.131 0.18 0.163c0.077 0.032 0.163 0.036 0.243 0.012s0.149-0.075 0.195-0.145 0.067-0.153 0.059-0.236c-0.008-0.083-0.045-0.161-0.104-0.22-0.033-0.034-0.073-0.060-0.117-0.078s-0.091-0.027-0.138-0.027z"></path>
<path fill="#95e1d3" d="M17.257 20.327c-0.115 0-0.225-0.046-0.306-0.127l-3.367-3.367c-0.041-0.040-0.074-0.088-0.097-0.14s-0.035-0.11-0.035-0.167c-0.001-0.057 0.010-0.114 0.032-0.168s0.054-0.101 0.094-0.142c0.041-0.041 0.089-0.073 0.142-0.094s0.11-0.033 0.168-0.032 0.114 0.012 0.167 0.035c0.053 0.023 0.101 0.056 0.14 0.097l3.232 3.23 0.834-0.048 0.048-0.835-0.070-0.070-0.707-0.080c-0.097-0.011-0.188-0.055-0.257-0.124s-0.113-0.16-0.124-0.257l-0.059-0.515-0.514-0.058c-0.097-0.011-0.188-0.055-0.257-0.124s-0.113-0.16-0.124-0.257l-0.080-0.707-1.038-1.038c-0.079-0.082-0.122-0.191-0.121-0.304s0.046-0.222 0.127-0.302 0.189-0.126 0.302-0.127c0.113-0.001 0.223 0.043 0.304 0.121l1.143 1.144c0.069 0.069 0.113 0.16 0.124 0.257l0.059 0.515 0.515 0.058c0.097 0.011 0.188 0.055 0.257 0.124s0.113 0.16 0.124 0.257l0.059 0.516 0.516 0.059c0.097 0.011 0.188 0.055 0.257 0.124l0.314 0.314c0.043 0.043 0.077 0.095 0.098 0.152s0.031 0.118 0.027 0.179l-0.082 1.413c-0.006 0.106-0.051 0.206-0.126 0.281s-0.175 0.12-0.281 0.126l-1.437 0.083z"></path>
</svg>
